# xmcd
#
# Track frame offsets: 
#        150
#        8761
#        21266
#        33331
#        46705
#        56265
#        68125
#        79877
#        88646
#        99333
#        108094
#        121293
#        130169
#        138444
#        163967
#        175914
#        184103
#        203762
#        214961
#        224499
#
# Disc length: 3107 seconds
#
# Revision: 0
# Processed by: cddbd v1.5.2PL0 Copyright (c) Steve Scherf et al.
# Submitted via: ExactAudioCopy v0.99pb5
#
DISCID=120c2114
DTITLE=Clancey Ferguson - Traditions
DYEAR=2009
DGENRE=Folk
TTITLE0=Ragtime Annie
TTITLE1=Wind and Rain
TTITLE2=Canjun Fiddle
TTITLE3=Seamus O'Brien
TTITLE4=Crooked Stove Pipe
TTITLE5=Poor Babes
TTITLE6=Bonapart's Retreat
TTITLE7=Liberty
TTITLE8=Milk Cow Blues
TTITLE9=Cindy
TTITLE10=Shenandoah Valley Waltz
TTITLE11=Black Mountain Rag
TTITLE12=Road to Lisdoonvarna
TTITLE13=Westphalia Waltz
TTITLE14=Watermelon
TTITLE15=Rubber Dolly
TTITLE16=Lorena
TTITLE17=Ain't No Bugs
TTITLE18=St. Anne's Reel
TTITLE19=Amazing Grace
EXTD=
EXTT0=
EXTT1=
EXTT2=
EXTT3=
EXTT4=
EXTT5=
EXTT6=
EXTT7=
EXTT8=
EXTT9=
EXTT10=
EXTT11=
EXTT12=
EXTT13=
EXTT14=
EXTT15=
EXTT16=
EXTT17=
EXTT18=
EXTT19=
PLAYORDER=
